<svg width="220" height="100" viewBox="0 0 220 100" fill="none" xmlns="http://www.w3.org/2000/svg">
<path d="M69.1572 53.7283C75.1207 50.1089 74.9707 45.6082 86.8977 29.9681M68.8009 55.6411C75.8333 49.8089 82.7532 41.2575 88.7542 33.9062M76.546 65.899C88.0791 61.042 92.9174 51.8905 97.7745 42.5514M77.2773 69.3496C83.3721 62.8985 87.1415 57.9477 101 42.8515" stroke="#FA5252" stroke-linecap="round"/>
<path d="M78.0275 31.2433C81.628 30.4744 85.3224 31.4121 88.623 33.0624C91.9423 34.6939 96.1992 37.0755 97.8682 41.1074C99.5373 45.1581 99.8561 53.372 98.6184 57.3101C97.3807 61.2295 94.0238 63.1236 90.442 64.6613C86.8414 66.1991 81.1592 67.0805 77.0523 66.5554C72.9266 66.0115 68.2758 64.2112 65.7254 61.4358C63.1937 58.6603 62.1811 53.5407 61.806 49.8651C61.431 46.1895 60.5496 42.8327 63.475 39.3634C66.4193 35.9128 76.6772 30.3244 79.4152 29.1242C82.1531 27.924 80.1841 31.8622 79.9028 32.181M83.8034 29.293C87.2165 29.518 90.8921 35.519 93.405 39.0633C95.9179 42.6077 98.8059 46.8084 98.9184 50.5402C99.0122 54.2909 96.4805 58.2853 94.0238 61.5108C91.5672 64.7176 87.7228 68.9558 84.1785 69.8559C80.6341 70.7748 76.3772 68.9745 72.7578 66.968C69.1197 64.9426 64.2627 61.3608 62.4624 57.7977C60.6621 54.2346 60.5683 49.9589 61.9373 45.5707C63.3063 41.1824 67.2257 34 70.6762 31.4683C74.1081 28.9554 80.1841 30.4182 82.6032 30.4369C85.0224 30.4557 85.4349 31.2245 85.1911 31.5621" stroke="#D9480F" stroke-width="2" stroke-linecap="round"/>
<path d="M124.359 65.2188C123.943 65.5833 123.5 65.4141 123.031 64.7109C122.589 64.0078 122.133 62.9531 121.664 61.5469C121.195 60.1146 120.727 58.4089 120.258 56.4297C119.815 54.4505 119.385 52.3542 118.969 50.1406C118.552 47.9271 118.148 45.6875 117.758 43.4219C117.393 41.1302 117.068 38.9818 116.781 36.9766C116.781 36.612 116.768 36.2474 116.742 35.8828C116.742 35.4922 116.781 35.1406 116.859 34.8281C116.964 34.4896 117.133 34.1901 117.367 33.9297C117.628 33.6693 118.018 33.474 118.539 33.3438C118.591 33.3177 118.695 33.3438 118.852 33.4219C119.034 33.474 119.216 33.5521 119.398 33.6562C119.581 33.7344 119.737 33.8255 119.867 33.9297C120.023 34.0339 120.128 34.125 120.18 34.2031C119.841 39.0729 120.401 43.8125 121.859 48.4219C121.938 48.3438 122.146 48.0833 122.484 47.6406C122.823 47.1719 123.253 46.638 123.773 46.0391C124.294 45.4141 124.88 44.75 125.531 44.0469C126.208 43.3438 126.911 42.6927 127.641 42.0938C128.37 41.4948 129.099 41 129.828 40.6094C130.557 40.1927 131.26 39.9844 131.938 39.9844C132.328 39.9844 132.706 40.0755 133.07 40.2578C133.461 40.4401 133.656 40.7917 133.656 41.3125C133.656 41.3646 133.643 41.4427 133.617 41.5469C133.591 41.625 133.578 41.6901 133.578 41.7422C133.161 42.1068 132.523 42.6667 131.664 43.4219C130.831 44.1771 129.945 45.0234 129.008 45.9609C128.07 46.8984 127.172 47.875 126.312 48.8906C125.453 49.9062 124.802 50.8698 124.359 51.7812C124.281 51.9375 124.255 52.0807 124.281 52.2109C124.307 52.3151 124.333 52.4453 124.359 52.6016C124.646 52.7057 125.102 52.862 125.727 53.0703C126.352 53.2786 127.042 53.526 127.797 53.8125C128.552 54.0729 129.359 54.3594 130.219 54.6719C131.078 54.9583 131.885 55.2448 132.641 55.5312C133.396 55.8177 134.073 56.0781 134.672 56.3125C135.297 56.5208 135.766 56.6771 136.078 56.7812C136.443 56.9375 136.742 57.0417 136.977 57.0938C137.211 57.1458 137.393 57.224 137.523 57.3281C137.654 57.4062 137.745 57.5234 137.797 57.6797C137.849 57.8359 137.875 58.0703 137.875 58.3828C137.875 59.138 137.693 59.6328 137.328 59.8672C136.964 60.1016 136.443 60.2188 135.766 60.2188C133.76 60.0885 131.794 59.6719 129.867 58.9688C127.94 58.2396 125.987 57.3672 124.008 56.3516C123.93 56.8464 123.956 57.4193 124.086 58.0703C124.242 58.7214 124.424 59.3724 124.633 60.0234C124.841 60.6745 125.036 61.3125 125.219 61.9375C125.427 62.5625 125.544 63.1224 125.57 63.6172C125.622 64.112 125.57 64.5026 125.414 64.7891C125.258 65.0755 124.906 65.2188 124.359 65.2188ZM139.398 50.0625C139.398 49.9062 139.398 49.6328 139.398 49.2422C139.424 48.8255 139.438 48.3958 139.438 47.9531C139.438 47.5104 139.438 47.1068 139.438 46.7422C139.464 46.3516 139.477 46.0781 139.477 45.9219C139.659 45.6094 139.867 45.3099 140.102 45.0234C140.362 44.7109 140.622 44.5026 140.883 44.3984C141.169 44.2682 141.469 44.2422 141.781 44.3203C142.12 44.3984 142.458 44.6589 142.797 45.1016V45.4141V45.9219C142.771 46.0521 142.719 46.3646 142.641 46.8594C142.562 47.3281 142.471 47.849 142.367 48.4219C142.263 48.9948 142.159 49.5286 142.055 50.0234C141.977 50.4922 141.938 50.7917 141.938 50.9219C141.938 51.4167 141.99 52.0417 142.094 52.7969C142.198 53.526 142.341 54.2943 142.523 55.1016C142.732 55.9089 142.979 56.7161 143.266 57.5234C143.578 58.3307 143.943 59.0599 144.359 59.7109C144.776 60.3359 145.232 60.8568 145.727 61.2734C146.247 61.6901 146.846 61.8984 147.523 61.8984C148.357 61.8984 149.086 61.6771 149.711 61.2344C150.362 60.7917 150.922 60.2188 151.391 59.5156C151.859 58.8125 152.237 58.0182 152.523 57.1328C152.836 56.2474 153.083 55.362 153.266 54.4766C153.448 53.5651 153.578 52.6927 153.656 51.8594C153.734 51.026 153.773 50.2969 153.773 49.6719C153.773 49.0469 153.721 48.4609 153.617 47.9141C153.539 47.3411 153.435 46.7812 153.305 46.2344C153.174 45.6875 153.057 45.1536 152.953 44.6328C152.875 44.0859 152.836 43.5391 152.836 42.9922C152.836 42.4974 153.005 42.1458 153.344 41.9375C153.708 41.7292 154.112 41.625 154.555 41.625C155.102 41.625 155.544 41.7943 155.883 42.1328C156.221 42.4453 156.482 42.849 156.664 43.3438C156.872 43.8385 157.003 44.4115 157.055 45.0625C157.133 45.6875 157.172 46.3125 157.172 46.9375C157.172 47.5625 157.159 48.1615 157.133 48.7344C157.107 49.2812 157.094 49.724 157.094 50.0625C157.094 50.9479 157.029 51.9505 156.898 53.0703C156.768 54.1901 156.534 55.349 156.195 56.5469C155.883 57.7188 155.479 58.8776 154.984 60.0234C154.516 61.1693 153.93 62.1979 153.227 63.1094C152.549 63.9948 151.755 64.7109 150.844 65.2578C149.958 65.8047 148.956 66.0781 147.836 66.0781C146.664 66.0781 145.635 65.8047 144.75 65.2578C143.865 64.6849 143.109 63.9427 142.484 63.0312C141.885 62.0938 141.378 61.0391 140.961 59.8672C140.544 58.6953 140.219 57.5234 139.984 56.3516C139.776 55.1797 139.62 54.0469 139.516 52.9531C139.438 51.8333 139.398 50.8698 139.398 50.0625Z" fill="#D9480F"/>
</svg>
